# xmcd
#
# Track frame offsets:
#	150
#	12160
#	24175
#	38322
#	49722
#	62291
#	73889
#	86967
#	98841
#	111069
#	125262
#	139161
#	149399
#	161333
#	173838
#
# Disc length: 2484 seconds
#
# Revision: 0
# Processed by: cddbd v1.5.2PL0 Copyright (c) Steve Scherf et al.
# Submitted via: audiograbber 1.83.01
#
DISCID=bb09b20f
DTITLE=Connie Smith - CB90088 Chart Buster (CB)
DYEAR=1900
DGENRE=Karaoke
TTITLE0=Ain't Had No Lovin' (CB)
TTITLE1=Cincinnati, Ohio (CB)
TTITLE2=The Hurtin's All Over (CB)
TTITLE3=If It Ain't Love (Let's Leave It Alone) (CB)
TTITLE4=Just One Time (CB)
TTITLE5=Once A Day (CB)
TTITLE6=Ribbon Of Darkness (CB)
TTITLE7=Then And Only Then (CB)
TTITLE8=If I Talk To Him (CB)
TTITLE9=I Never Once Stopped Loving You (CB)
TTITLE10=You And Your Sweet Love (CB)
TTITLE11=I'll Come Runnin' (CB)
TTITLE12=Burning A Hole In My Mind (CB)
TTITLE13=Run Away Little Tears (CB)
TTITLE14=Nobody But A Fool Would Love You (CB)
EXTD=
EXTT0=
EXTT1=
EXTT2=
EXTT3=
EXTT4=
EXTT5=
EXTT6=
EXTT7=
EXTT8=
EXTT9=
EXTT10=
EXTT11=
EXTT12=
EXTT13=
EXTT14=
PLAYORDER=
